ply
format ascii 1.0
comment VCGLIB generated
element vertex 8
property float x
property float y
property float z
element face 12
property list uchar int vertex_indices
property uchar red
property uchar green
property uchar blue
property uchar alpha
end_header
0 0 0 
0 0 1 
0 1 1 
0 1 0 
1 0 0 
1 0 1 
1 1 1 
1 1 0 
3 0 1 2 0 0 255 0
3 1 4 5 0 0 255 0
3 0 7 4 0 0 255 0
3 0 3 7 0 0 255 0
3 0 4 1 0 0 255 0
3 4 5 7 0 0 255 255
3 5 6 7 0 0 255 255
3 0 2 3 0 0 255 255
3 2 3 6 0 0 255 255
3 3 7 6 0 0 255 255
3 1 2 5 0 0 255 255
3 2 6 5 0 0 255 255
